<svg width="25" height="25" viewBox="0 0 25 25" fill="none" xmlns="http://www.w3.org/2000/svg">
<path d="M4.90419 13.5185C4.96885 13.5181 4.96885 13.5181 5.03483 13.5177C5.08176 13.5176 5.12869 13.5175 5.17704 13.5175C5.25163 13.5171 5.25163 13.5171 5.32772 13.5168C5.49235 13.516 5.65697 13.5157 5.8216 13.5154C5.93619 13.5152 6.05079 13.5149 6.16538 13.5146C6.40583 13.5141 6.64628 13.5138 6.88674 13.5136C7.19409 13.5134 7.50143 13.5122 7.80877 13.5108C8.04562 13.5099 8.28246 13.5096 8.51931 13.5096C8.63257 13.5094 8.74583 13.509 8.85908 13.5084C9.018 13.5075 9.1769 13.5076 9.33582 13.508C9.38215 13.5075 9.42849 13.5071 9.47623 13.5066C10.0577 13.5102 10.4858 13.7022 10.9222 14.0777C11.3385 14.5616 11.4974 15.022 11.4943 15.6587C11.4947 15.7084 11.495 15.7581 11.4953 15.8093C11.4962 15.9721 11.4961 16.1349 11.4958 16.2977C11.496 16.4117 11.4963 16.5258 11.4965 16.6399C11.497 16.8784 11.4969 17.1169 11.4964 17.3554C11.4958 17.66 11.4968 17.9645 11.4982 18.2691C11.4991 18.5045 11.4991 18.7399 11.4988 18.9753C11.4988 19.0875 11.4991 19.1998 11.4997 19.3121C11.5005 19.4694 11.4999 19.6268 11.4991 19.7841C11.4998 19.8527 11.4998 19.8527 11.5005 19.9226C11.4945 20.472 11.2821 20.97 10.9087 21.3728C10.589 21.6684 10.1782 21.8798 9.739 21.8822C9.67259 21.8827 9.67259 21.8827 9.60484 21.8832C9.55662 21.8833 9.50839 21.8835 9.45871 21.8836C9.40764 21.8839 9.35656 21.8843 9.30393 21.8846C9.13479 21.8855 8.96564 21.8861 8.79649 21.8866C8.70969 21.8869 8.70969 21.8869 8.62113 21.8872C8.31468 21.8882 8.00823 21.8889 7.70178 21.8894C7.386 21.8899 7.07024 21.8916 6.75447 21.8935C6.51104 21.8948 6.26762 21.8952 6.0242 21.8954C5.90785 21.8956 5.79149 21.8962 5.67514 21.8971C5.51179 21.8983 5.34847 21.8983 5.18511 21.8979C5.11381 21.8989 5.11381 21.8989 5.04108 21.8998C4.46911 21.8955 4.03222 21.6858 3.61957 21.3016C3.03474 20.6954 3.08939 19.9855 3.09428 19.1969C3.09424 19.0786 3.09412 18.9603 3.09393 18.842C3.09379 18.5949 3.0945 18.3478 3.09584 18.1006C3.09751 17.785 3.09721 17.4694 3.0963 17.1537C3.09578 16.9097 3.09622 16.6657 3.09695 16.4217C3.09721 16.3053 3.09719 16.189 3.09688 16.0726C3.09661 15.9096 3.09761 15.7467 3.09894 15.5838C3.09863 15.5364 3.09831 15.489 3.09798 15.4402C3.10542 14.9002 3.28837 14.453 3.6621 14.0625C4.0028 13.751 4.43568 13.5203 4.90419 13.5185Z" fill="black"/>
<path d="M5.15749 3.11081C5.23413 3.11032 5.23413 3.11032 5.31233 3.10982C5.48068 3.10889 5.64902 3.1087 5.81738 3.10859C5.93493 3.10828 6.05248 3.10795 6.17003 3.10761C6.4163 3.10702 6.66257 3.10684 6.90884 3.1069C7.22346 3.10691 7.53807 3.10558 7.85269 3.10389C8.09548 3.1028 8.33828 3.10261 8.58107 3.10266C8.69702 3.10255 8.81296 3.10212 8.9289 3.10136C9.09154 3.1004 9.25414 3.10069 9.41679 3.10127C9.46408 3.10072 9.51138 3.10017 9.56012 3.09961C10.1002 3.10452 10.5471 3.28854 10.9375 3.6621C11.249 4.00281 11.4796 4.43569 11.4814 4.90419C11.4817 4.9473 11.482 4.99041 11.4823 5.03483C11.4824 5.10523 11.4824 5.10523 11.4824 5.17704C11.4827 5.22677 11.4829 5.27649 11.4832 5.32773C11.4839 5.49235 11.4842 5.65698 11.4845 5.8216C11.4848 5.9362 11.4851 6.05079 11.4853 6.16538C11.4859 6.40584 11.4861 6.64629 11.4863 6.88674C11.4866 7.19409 11.4877 7.50143 11.4891 7.80878C11.49 8.04562 11.4903 8.28247 11.4904 8.51932C11.4905 8.63257 11.4909 8.74583 11.4916 8.85909C11.4924 9.01801 11.4923 9.1769 11.492 9.33582C11.4924 9.38216 11.4929 9.42849 11.4933 9.47623C11.4897 10.0577 11.2978 10.4858 10.9222 10.9222C10.4384 11.3386 9.97791 11.4974 9.34122 11.4943C9.29153 11.4947 9.24184 11.495 9.19064 11.4953C9.02783 11.4962 8.86505 11.4961 8.70224 11.4958C8.58819 11.496 8.47413 11.4963 8.36007 11.4966C8.12157 11.497 7.88308 11.4969 7.64458 11.4964C7.33998 11.4958 7.0354 11.4968 6.7308 11.4982C6.49541 11.4991 6.26004 11.4991 6.02465 11.4988C5.91239 11.4988 5.80013 11.4991 5.68786 11.4997C5.5305 11.5005 5.37318 11.4999 5.21581 11.4991C5.17011 11.4996 5.12442 11.5 5.07733 11.5005C4.52794 11.4945 4.02992 11.2821 3.62717 10.9087C3.3308 10.5882 3.12055 10.1775 3.11745 9.73748C3.11703 9.69287 3.11661 9.64825 3.11618 9.60228C3.11597 9.55368 3.11576 9.50508 3.11555 9.45501C3.11515 9.40353 3.11475 9.35206 3.11434 9.29902C3.11313 9.12853 3.11232 8.95803 3.11162 8.78753C3.11136 8.72919 3.1111 8.67084 3.11083 8.61072C3.10952 8.30168 3.10858 7.99265 3.10787 7.68361C3.10722 7.42843 3.10586 7.17326 3.10387 6.91809C3.10145 6.6095 3.10025 6.30092 3.0999 5.99232C3.09958 5.87505 3.09883 5.75779 3.09766 5.64052C3.09005 4.83382 3.09969 4.23189 3.68821 3.62281C4.13689 3.22319 4.57233 3.11027 5.15749 3.11081Z" fill="black"/>
<path d="M15.261 3.11775C15.3053 3.11741 15.3496 3.11706 15.3952 3.1167C15.4434 3.11656 15.4916 3.11643 15.5413 3.1163C15.5924 3.11598 15.6435 3.11566 15.6961 3.11533C15.8653 3.11436 16.0344 3.11379 16.2035 3.11331C16.2904 3.11301 16.2904 3.11301 16.3789 3.1127C16.6854 3.11168 16.9918 3.11099 17.2983 3.11053C17.614 3.10999 17.9298 3.10831 18.2456 3.10637C18.489 3.10509 18.7324 3.10468 18.9758 3.10451C19.0922 3.10427 19.2085 3.10371 19.3249 3.1028C19.4883 3.1016 19.6516 3.10165 19.8149 3.10199C19.8625 3.10137 19.91 3.10074 19.959 3.1001C20.5282 3.10436 20.9774 3.31105 21.3822 3.70344C21.6859 4.02713 21.8798 4.41182 21.8822 4.86054C21.8828 4.92695 21.8828 4.92695 21.8833 4.99471C21.8834 5.04293 21.8836 5.09115 21.8837 5.14083C21.884 5.19191 21.8843 5.24298 21.8847 5.29561C21.8856 5.46476 21.8862 5.6339 21.8867 5.80305C21.8869 5.86092 21.8871 5.91879 21.8873 5.97841C21.8883 6.28486 21.889 6.59131 21.8895 6.89776C21.89 7.21354 21.8917 7.5293 21.8936 7.84507C21.8949 8.0885 21.8953 8.33192 21.8955 8.57534C21.8957 8.6917 21.8963 8.80805 21.8972 8.9244C21.8984 9.08776 21.8983 9.25107 21.898 9.41443C21.8989 9.48573 21.8989 9.48573 21.8999 9.55846C21.8958 10.0994 21.7121 10.5465 21.3379 10.9374C20.9972 11.2489 20.5644 11.4796 20.0959 11.4814C20.0527 11.4817 20.0096 11.482 19.9652 11.4823C19.9183 11.4823 19.8714 11.4824 19.823 11.4824C19.7484 11.4828 19.7484 11.4828 19.6723 11.4832C19.5077 11.4839 19.3431 11.4842 19.1784 11.4845C19.0638 11.4847 18.9493 11.485 18.8347 11.4853C18.5942 11.4858 18.3538 11.4861 18.1133 11.4863C17.806 11.4865 17.4986 11.4877 17.1913 11.4891C16.9544 11.49 16.7176 11.4903 16.4807 11.4903C16.3675 11.4905 16.2542 11.4909 16.141 11.4915C15.982 11.4924 15.8231 11.4923 15.6642 11.492C15.5947 11.4926 15.5947 11.4926 15.5238 11.4933C14.9424 11.4897 14.5143 11.2977 14.0778 10.9222C13.6615 10.4384 13.5027 9.97788 13.5057 9.34119C13.5054 9.2915 13.505 9.24181 13.5047 9.19061C13.5038 9.02781 13.504 8.86503 13.5043 8.70222C13.504 8.58816 13.5038 8.4741 13.5035 8.36005C13.5031 8.12155 13.5032 7.88306 13.5037 7.64456C13.5042 7.33995 13.5032 7.03537 13.5018 6.73077C13.5009 6.49539 13.5009 6.26001 13.5012 6.02463C13.5012 5.91236 13.5009 5.8001 13.5003 5.68784C13.4996 5.53047 13.5001 5.37315 13.5009 5.21579C13.5005 5.17009 13.5 5.12439 13.4995 5.07731C13.5056 4.52791 13.718 4.0299 14.0914 3.62715C14.4111 3.33148 14.8218 3.12014 15.261 3.11775Z" fill="black"/>
<path d="M18.2312 13.6261C18.5008 13.7765 18.6514 13.962 18.75 14.2578C18.7543 14.3365 18.7558 14.4153 18.7556 14.4941C18.7556 14.5659 18.7556 14.5659 18.7556 14.6392C18.7553 14.6908 18.7551 14.7424 18.7548 14.7955C18.7547 14.8484 18.7547 14.9013 18.7546 14.9558C18.7543 15.125 18.7537 15.2941 18.7531 15.4633C18.7528 15.5779 18.7526 15.6925 18.7524 15.8071C18.7519 16.0882 18.7511 16.3693 18.75 16.6504C18.7783 16.6499 18.8066 16.6493 18.8357 16.6488C19.132 16.6433 19.4283 16.6397 19.7246 16.637C19.8349 16.6358 19.9453 16.6341 20.0556 16.632C20.2149 16.629 20.3741 16.6276 20.5334 16.6266C20.6065 16.6247 20.6065 16.6247 20.6811 16.6227C21.0274 16.6226 21.2943 16.6969 21.5821 16.8945C21.8611 17.1868 21.8929 17.4679 21.8882 17.8566C21.8658 18.1309 21.788 18.3089 21.5849 18.4952C21.3611 18.67 21.1944 18.7563 20.9064 18.7555C20.8345 18.7555 20.8345 18.7555 20.7612 18.7555C20.7097 18.7553 20.6581 18.755 20.6049 18.7548C20.552 18.7547 20.4991 18.7546 20.4446 18.7546C20.2755 18.7543 20.1063 18.7537 19.9372 18.7531C19.8226 18.7528 19.708 18.7526 19.5934 18.7524C19.3123 18.7518 19.0311 18.751 18.75 18.75C18.7505 18.7791 18.7509 18.8082 18.7514 18.8382C18.7557 19.1424 18.7586 19.4466 18.7608 19.7508C18.7617 19.8641 18.7631 19.9775 18.7648 20.0909C18.7672 20.2543 18.7683 20.4176 18.7691 20.5811C18.7706 20.6565 18.7706 20.6565 18.7722 20.7335C18.7723 21.0926 18.7137 21.3724 18.4554 21.6337C18.4227 21.6559 18.39 21.6782 18.3564 21.7011C18.3236 21.7242 18.2908 21.7473 18.257 21.7711C17.9918 21.9284 17.6807 21.8952 17.3828 21.875C17.0904 21.7758 16.8919 21.5828 16.742 21.3149C16.6188 21.0608 16.6257 20.8206 16.6314 20.5429C16.6316 20.4914 16.6319 20.44 16.6322 20.3869C16.6333 20.2238 16.6357 20.0606 16.6382 19.8975C16.6392 19.7863 16.6401 19.6752 16.6409 19.5641C16.643 19.2927 16.6463 19.0214 16.6504 18.75C16.6211 18.7503 16.5918 18.7507 16.5616 18.751C16.2558 18.7542 15.9501 18.7564 15.6443 18.7581C15.5303 18.7588 15.4162 18.7598 15.3022 18.7611C15.1381 18.7628 14.974 18.7637 14.8098 18.7643C14.759 18.7651 14.7082 18.7658 14.6558 18.7666C14.3153 18.7667 14.1043 18.7197 13.8367 18.4967C13.5885 18.2028 13.4903 17.9509 13.5069 17.5623C13.5543 17.228 13.7159 17.0196 13.9708 16.8079C14.1582 16.6856 14.3269 16.6381 14.5495 16.6393C14.5964 16.6393 14.6434 16.6393 14.6917 16.6393C14.7417 16.6398 14.7917 16.6403 14.8432 16.6409C14.9207 16.6411 14.9207 16.6411 14.9998 16.6413C15.1645 16.6418 15.3291 16.643 15.4938 16.6443C15.6056 16.6448 15.7174 16.6452 15.8292 16.6456C16.103 16.6467 16.3767 16.6483 16.6504 16.6504C16.65 16.6219 16.6496 16.5934 16.6491 16.564C16.6448 16.2662 16.6418 15.9684 16.6397 15.6705C16.6387 15.5595 16.6374 15.4485 16.6357 15.3375C16.6333 15.1775 16.6322 15.0175 16.6314 14.8575C16.6303 14.8082 16.6293 14.759 16.6283 14.7082C16.6282 14.3525 16.6959 14.0897 16.931 13.8172C16.9583 13.7954 16.9855 13.7737 17.0136 13.7512C17.0407 13.7287 17.0678 13.7062 17.0958 13.6829C17.4478 13.4532 17.8544 13.4548 18.2312 13.6261Z" fill="black"/>
</svg>
