<svg width="25" height="25" viewBox="0 0 25 25" fill="none" xmlns="http://www.w3.org/2000/svg">
<path d="M19.5801 1.75793C19.6134 1.7684 19.6467 1.77886 19.681 1.78964C20.3757 2.0134 20.9808 2.35301 21.5333 2.83215C21.5727 2.86457 21.6122 2.89698 21.6528 2.93038C22.6387 3.76762 23.282 5.01769 23.4375 6.29895C23.4528 6.53614 23.4562 6.77236 23.4559 7.01001C23.4558 7.05829 23.4558 7.05829 23.4558 7.10754C23.4537 7.64405 23.4069 8.13238 23.2422 8.6427C23.2269 8.69223 23.2269 8.69223 23.2113 8.74276C22.9846 9.46046 22.6071 10.0741 22.1192 10.6447C22.0959 10.6744 22.0726 10.7042 22.0486 10.7349C21.7434 11.1177 21.3391 11.4015 20.9321 11.667C20.904 11.6854 20.876 11.7039 20.8471 11.7229C20.6738 11.8329 20.5074 11.9014 20.3125 11.963C20.3127 11.9992 20.3129 12.0354 20.3131 12.0728C20.3174 12.9542 20.3206 13.8357 20.3227 14.7172C20.3237 15.1435 20.325 15.5698 20.3273 15.9961C20.3292 16.3676 20.3305 16.7392 20.3309 17.1108C20.3312 17.3075 20.3318 17.5042 20.3332 17.7009C20.3345 17.8862 20.3349 18.0714 20.3346 18.2566C20.3347 18.3245 20.3351 18.3924 20.3358 18.4603C20.3425 19.0952 20.3425 19.0952 20.1172 19.3361C19.8033 19.6175 19.3393 19.7653 18.9576 19.9373C18.8814 19.9718 18.8052 20.0064 18.729 20.0411C18.1703 20.2944 17.6096 20.543 17.0485 20.7909C16.4061 21.0749 15.7686 21.369 15.132 21.6657C14.463 21.9773 13.791 22.2816 13.1151 22.5782C12.7837 22.7238 12.4544 22.8718 12.1291 23.0304C12.0431 23.0719 12.0431 23.0719 11.9554 23.1141C11.8511 23.1648 11.7472 23.2164 11.6439 23.2691C11.2828 23.4437 10.9478 23.536 10.5536 23.4081C10.3 23.3115 10.0579 23.1909 9.8145 23.0714C9.73463 23.0333 9.6547 22.9952 9.5747 22.9573C9.4511 22.8988 9.32753 22.8402 9.20415 22.7811C8.83208 22.6033 8.45599 22.4356 8.07837 22.27C7.36523 21.9571 6.65798 21.6322 5.95212 21.3032C5.39553 21.0439 4.83725 20.7892 4.27553 20.5412C3.95689 20.4005 3.6386 20.2589 3.32036 20.1173C3.28508 20.1016 3.24979 20.0859 3.21344 20.0698C3.00519 19.9771 2.79735 19.8836 2.59002 19.7889C2.52654 19.7601 2.46294 19.7315 2.39921 19.7032C1.74766 19.4133 1.74766 19.4133 1.56255 19.0431C1.55744 18.9035 1.55533 18.7651 1.55536 18.6255C1.55518 18.5818 1.555 18.538 1.55482 18.4929C1.55428 18.3455 1.55409 18.198 1.55391 18.0506C1.5536 17.9452 1.55328 17.8398 1.55293 17.7344C1.55208 17.4475 1.55157 17.1606 1.55117 16.8737C1.55091 16.6945 1.55062 16.5154 1.55031 16.3362C1.54938 15.7761 1.54869 15.2159 1.54828 14.6558C1.5478 14.0085 1.54652 13.3613 1.54454 12.7141C1.54307 12.2142 1.54235 11.7144 1.54219 11.2145C1.54207 10.9158 1.54163 10.617 1.54041 10.3183C1.53927 10.0373 1.53906 9.75627 1.53956 9.47524C1.53959 9.37206 1.53928 9.26887 1.53861 9.16569C1.53775 9.02488 1.53809 8.88411 1.53873 8.74329C1.5382 8.70241 1.53766 8.66154 1.53711 8.61942C1.53997 8.36005 1.58797 8.21511 1.75786 8.00793C2.07183 7.72647 2.53581 7.57872 2.91753 7.40674C2.99373 7.37216 3.06992 7.33756 3.1461 7.30294C3.70475 7.04956 4.26553 6.80102 4.82662 6.55311C5.46901 6.26908 6.10645 5.97503 6.74307 5.67833C7.41214 5.36664 8.08412 5.06239 8.76002 4.76582C9.09136 4.62019 9.42068 4.47221 9.74603 4.31359C9.832 4.27214 9.832 4.27214 9.9197 4.22985C10.024 4.17918 10.1279 4.12761 10.2312 4.0749C10.5978 3.89761 10.9311 3.80679 11.3301 3.93949C11.6009 4.04365 11.8609 4.17007 12.1216 4.297C12.2012 4.33474 12.2809 4.37238 12.3606 4.40991C12.5542 4.50131 12.747 4.59407 12.9395 4.68762C13.055 4.53671 13.1493 4.38391 13.2416 4.21765C13.4095 3.92709 13.6017 3.6735 13.8184 3.41809C13.8437 3.38567 13.869 3.35326 13.8951 3.31986C15.1806 1.72744 17.6736 1.13997 19.5801 1.75793ZM15.1368 4.34582C14.3467 5.16806 14.0836 6.20883 14.0982 7.31938C14.123 8.11694 14.4716 8.91584 14.9903 9.52161C15.0134 9.5522 15.0365 9.58279 15.0603 9.6143C15.6545 10.3641 16.6142 10.7749 17.536 10.9115C18.5675 11.0244 19.6054 10.705 20.4185 10.0672C21.146 9.46457 21.726 8.57148 21.8262 7.61731C21.8994 6.48318 21.7069 5.4256 20.9473 4.54114C20.9231 4.50998 20.8988 4.47882 20.8739 4.44672C20.2304 3.65125 19.241 3.24409 18.2465 3.13428C17.0567 3.06539 15.9809 3.52925 15.1368 4.34582ZM10.6186 5.70481C10.5852 5.71961 10.5517 5.73442 10.5172 5.74967C10.405 5.79938 10.2928 5.84926 10.1807 5.89917C10.1419 5.91643 10.103 5.93369 10.063 5.95148C9.38959 6.25088 8.72056 6.55916 8.0526 6.87043C7.27592 7.2322 6.49427 7.58183 5.71052 7.92796C5.25388 8.12985 4.79966 8.33709 4.34575 8.54504C4.34575 8.57727 4.34575 8.6095 4.34575 8.6427C4.39414 8.66406 4.44253 8.68543 4.49239 8.70744C6.10725 9.42083 6.10725 9.42083 6.67898 9.69601C7.04624 9.87215 7.41718 10.0401 7.78813 10.2083C7.82208 10.2236 7.85602 10.239 7.891 10.2549C7.96039 10.2863 8.02979 10.3178 8.09919 10.3493C8.13413 10.3651 8.16908 10.3809 8.20508 10.3973C8.24045 10.4133 8.27582 10.4293 8.31227 10.4459C8.73002 10.6353 9.14715 10.8261 9.56426 11.017C9.63569 11.0497 9.70712 11.0823 9.77855 11.115C9.81257 11.1306 9.84659 11.1462 9.88164 11.1622C9.9476 11.1924 10.0136 11.2224 10.0797 11.2523C10.2246 11.318 10.3676 11.3852 10.5096 11.4571C10.5563 11.4804 10.603 11.5037 10.6511 11.5278C10.6904 11.5483 10.7298 11.5688 10.7703 11.59C11.0391 11.6609 11.3402 11.4556 11.5832 11.3427C11.6214 11.3252 11.6595 11.3076 11.6989 11.2894C11.8205 11.2333 11.9421 11.177 12.0636 11.1207C12.144 11.0836 12.2243 11.0466 12.3046 11.0095C12.4971 10.9207 12.6894 10.8318 12.8817 10.7428C13.0423 10.6685 13.2029 10.5944 13.3635 10.5203C13.4394 10.4853 13.4394 10.4853 13.5167 10.4496C13.5518 10.4334 13.5869 10.4172 13.6231 10.4005C13.6009 10.3673 13.5786 10.3341 13.5557 10.3C12.8761 9.27639 12.5271 8.23196 12.5428 6.9978C12.5433 6.92968 12.5437 6.86155 12.5441 6.79343C12.5452 6.62859 12.5468 6.46378 12.5489 6.29895C12.3273 6.19452 12.1057 6.09022 11.884 5.98602C11.8085 5.95053 11.7331 5.91501 11.6576 5.87945C11.5494 5.82846 11.4412 5.77759 11.3329 5.72674C11.299 5.71072 11.2651 5.6947 11.2301 5.6782C10.9538 5.54863 10.8897 5.5844 10.6186 5.70481ZM3.12505 9.8634C3.12505 12.6188 3.12505 15.3741 3.12505 18.213C3.58288 18.4419 4.03486 18.6668 4.50311 18.871C5.2113 19.1807 5.91523 19.4988 6.61626 19.8243C7.31902 20.1506 8.02466 20.4696 8.7337 20.7819C8.80151 20.8118 8.86932 20.8417 8.93712 20.8717C8.96948 20.8859 9.00183 20.9002 9.03516 20.9149C9.30248 21.0332 9.56726 21.1567 9.83067 21.2835C9.98655 21.3618 9.98655 21.3618 10.1563 21.3868C10.1563 18.6315 10.1563 15.8761 10.1563 13.0372C9.70005 12.8091 9.24986 12.585 8.7832 12.3817C8.05651 12.0642 7.33495 11.7367 6.61626 11.4015C5.89294 11.0643 5.16669 10.7347 4.43645 10.4127C4.4025 10.3977 4.36856 10.3828 4.33359 10.3674C4.26796 10.3384 4.20232 10.3095 4.13666 10.2806C3.87016 10.163 3.60638 10.0401 3.3432 9.91515C3.22961 9.85698 3.22961 9.85698 3.12505 9.8634ZM14.436 11.7715C14.4007 11.7873 14.3653 11.8031 14.3289 11.8193C14.2135 11.8709 14.0983 11.9231 13.9832 11.9752C13.904 12.0108 13.8247 12.0464 13.7455 12.0819C13.5091 12.1882 13.2731 12.2952 13.0372 12.4025C13.0023 12.4183 12.9675 12.4341 12.9316 12.4504C12.7194 12.5469 12.5074 12.6439 12.2956 12.7412C12.2423 12.7657 12.1891 12.7901 12.1342 12.8154C12.0861 12.8377 12.0379 12.86 11.9883 12.8829C11.9466 12.9022 11.9048 12.9216 11.8618 12.9415C11.7697 12.9811 11.7697 12.9811 11.7188 13.0372C11.7141 13.1448 11.7128 13.2525 11.7129 13.3601C11.7129 13.3942 11.7128 13.4284 11.7128 13.4635C11.7127 13.5788 11.713 13.694 11.7133 13.8092C11.7133 13.8915 11.7133 13.9738 11.7132 14.056C11.7132 14.2801 11.7135 14.5042 11.7138 14.7282C11.7142 14.9621 11.7142 15.196 11.7142 15.4299C11.7144 15.8731 11.7148 16.3163 11.7153 16.7595C11.7158 17.264 11.7161 17.7684 11.7163 18.2729C11.7169 19.3109 11.7177 20.3489 11.7188 21.3868C11.788 21.3643 11.8571 21.3416 11.9262 21.3189C11.984 21.3 11.984 21.3 12.0429 21.2807C12.2194 21.219 12.387 21.1411 12.5559 21.0613C12.6112 21.0355 12.6112 21.0355 12.6676 21.0092C12.7466 20.9724 12.8256 20.9355 12.9046 20.8984C13.1178 20.7985 13.3314 20.6993 13.5451 20.6003C13.5887 20.58 13.6322 20.5598 13.6771 20.539C14.0944 20.3458 14.5145 20.1593 14.9354 19.9739C15.6687 19.6505 16.3965 19.316 17.1227 18.9769C17.2019 18.94 17.2811 18.903 17.3604 18.8661C17.4175 18.8394 17.4175 18.8394 17.4759 18.8122C17.7929 18.6649 18.1121 18.5225 18.4326 18.3826C18.6034 18.317 18.6034 18.317 18.75 18.213C18.7547 18.1383 18.756 18.0633 18.7559 17.9884C18.756 17.9399 18.7561 17.8913 18.7561 17.8413C18.7559 17.7876 18.7558 17.7339 18.7556 17.6786C18.7556 17.5943 18.7556 17.5943 18.7556 17.5082C18.7556 17.3215 18.7552 17.1347 18.7548 16.9479C18.7547 16.8188 18.7547 16.6896 18.7546 16.5605C18.7545 16.2548 18.7541 15.9491 18.7536 15.6433C18.753 15.2953 18.7528 14.9473 18.7525 14.5994C18.752 13.8833 18.7511 13.1673 18.75 12.4513C18.7067 12.4517 18.6634 12.4521 18.6188 12.4526C18.4559 12.4539 18.2929 12.4549 18.13 12.4557C18.0599 12.456 17.9898 12.4566 17.9197 12.4573C17.3762 12.4625 16.8767 12.426 16.3575 12.256C16.3237 12.2453 16.29 12.2345 16.2553 12.2235C15.8423 12.0892 15.4757 11.9216 15.1101 11.6857C14.8624 11.5524 14.6691 11.6653 14.436 11.7715Z" fill="black"/>
<path d="M18.2617 3.90635C18.5042 4.01891 18.6226 4.16225 18.75 4.39463C18.7753 4.54016 18.7729 4.68179 18.7691 4.82913C18.7688 4.8699 18.7685 4.91067 18.7682 4.95267C18.7671 5.08204 18.7647 5.21133 18.7622 5.34068C18.7612 5.42873 18.7603 5.51679 18.7595 5.60485C18.7574 5.81996 18.754 6.03502 18.75 6.2501C18.8047 6.24908 18.8593 6.24806 18.9157 6.247C19.1193 6.24346 19.323 6.24122 19.5266 6.23937C19.6146 6.23839 19.7026 6.23706 19.7906 6.23537C19.9174 6.23299 20.0442 6.23189 20.171 6.23103C20.2296 6.22952 20.2296 6.22952 20.2894 6.22797C20.5488 6.22787 20.6916 6.27533 20.8984 6.44542C21.0756 6.6319 21.1089 6.78149 21.1182 7.03135C21.1089 7.28122 21.0756 7.4308 20.8984 7.61729C20.6515 7.82033 20.4767 7.83956 20.171 7.83168C20.1302 7.8314 20.0894 7.83112 20.0474 7.83084C19.9181 7.82975 19.7888 7.8273 19.6594 7.82481C19.5714 7.82383 19.4833 7.82294 19.3953 7.82214C19.1801 7.81999 18.9651 7.81663 18.75 7.8126C18.7515 7.89461 18.7515 7.89461 18.7531 7.97828C18.7566 8.18193 18.7589 8.38558 18.7607 8.58925C18.7617 8.67725 18.763 8.76524 18.7647 8.85323C18.7671 8.98002 18.7682 9.10677 18.7691 9.23358C18.7701 9.27265 18.7711 9.31173 18.7721 9.35198C18.7722 9.61139 18.7248 9.75421 18.5547 9.96104C18.3682 10.1382 18.2186 10.1715 17.9688 10.1808C17.7189 10.1715 17.5693 10.1382 17.3828 9.96104C17.1798 9.71414 17.1605 9.53929 17.1684 9.23358C17.1687 9.19281 17.169 9.15204 17.1693 9.11003C17.1704 8.98067 17.1728 8.85137 17.1753 8.72203C17.1763 8.63397 17.1772 8.54592 17.178 8.45786C17.1801 8.24275 17.1835 8.02769 17.1875 7.8126C17.1055 7.81414 17.1055 7.81414 17.0218 7.8157C16.8182 7.81925 16.6145 7.82148 16.4109 7.82333C16.3229 7.82431 16.2349 7.82564 16.1469 7.82734C16.0201 7.82972 15.8933 7.83082 15.7665 7.83168C15.7079 7.83319 15.7079 7.83319 15.6481 7.83473C15.3887 7.83483 15.2459 7.78738 15.0391 7.61729C14.8619 7.4308 14.8286 7.28122 14.8193 7.03135C14.8286 6.78149 14.8619 6.6319 15.0391 6.44542C15.286 6.24237 15.4608 6.22314 15.7665 6.23103C15.8073 6.23131 15.8481 6.23158 15.8901 6.23187C16.0194 6.23295 16.1487 6.2354 16.2781 6.2379C16.3661 6.23888 16.4542 6.23977 16.5422 6.24057C16.7574 6.24271 16.9724 6.24608 17.1875 6.2501C17.1865 6.19543 17.1855 6.14076 17.1844 6.08443C17.1809 5.88077 17.1786 5.67713 17.1768 5.47345C17.1758 5.38546 17.1745 5.29746 17.1728 5.20948C17.1704 5.08269 17.1693 4.95594 17.1684 4.82913C17.1674 4.79005 17.1664 4.75098 17.1654 4.71072C17.1653 4.45132 17.2127 4.30849 17.3828 4.10167C17.6402 3.85715 17.9252 3.86105 18.2617 3.90635Z" fill="black"/>
</svg>
