<svg width="33" height="33" viewBox="0 0 33 33" fill="none" xmlns="http://www.w3.org/2000/svg">
<path d="M5.94731 18.0281C6.0268 18.0277 6.10629 18.0272 6.18818 18.0268C6.40553 18.0258 6.62286 18.0253 6.84021 18.0253C6.97628 18.0252 7.11234 18.0249 7.24841 18.0245C7.72389 18.0234 8.19937 18.0228 8.67486 18.0229C9.11677 18.023 9.55866 18.0216 10.0006 18.0196C10.381 18.0179 10.7614 18.0172 11.1419 18.0173C11.3686 18.0173 11.5954 18.017 11.8221 18.0156C12.0754 18.0141 12.3287 18.0147 12.582 18.0155C12.6562 18.0148 12.7304 18.0141 12.8069 18.0133C13.4211 18.0181 13.9459 18.1543 14.4033 18.5816C14.8947 19.1281 14.9725 19.6709 14.9719 20.3847C14.9723 20.4642 14.9728 20.5437 14.9732 20.6256C14.9742 20.8429 14.9747 21.0602 14.9747 21.2776C14.9748 21.4137 14.9751 21.5497 14.9755 21.6858C14.9766 22.1613 14.9772 22.6368 14.9771 23.1122C14.977 23.5541 14.9784 23.996 14.9804 24.4379C14.9821 24.8184 14.9828 25.1988 14.9827 25.5793C14.9827 25.806 14.983 26.0327 14.9844 26.2595C14.9859 26.5128 14.9853 26.766 14.9845 27.0193C14.9852 27.0936 14.9859 27.1678 14.9867 27.2442C14.9819 27.8584 14.8457 28.3832 14.4184 28.8407C13.8719 29.3321 13.3291 29.4098 12.6153 29.4093C12.5358 29.4097 12.4563 29.4102 12.3744 29.4106C12.1571 29.4116 11.9398 29.412 11.7224 29.4121C11.5863 29.4122 11.4503 29.4125 11.3142 29.4128C10.8387 29.414 10.3632 29.4146 9.88776 29.4145C9.44586 29.4144 9.00397 29.4157 8.56206 29.4178C8.18163 29.4195 7.80119 29.4201 7.42075 29.4201C7.19399 29.42 6.96726 29.4204 6.7405 29.4218C6.48722 29.4233 6.23396 29.4227 5.98067 29.4219C5.90645 29.4226 5.83223 29.4233 5.75576 29.4241C5.14157 29.4193 4.61677 29.2831 4.1593 28.8558C3.66795 28.3093 3.59015 27.7665 3.59071 27.0527C3.59028 26.9732 3.58985 26.8937 3.5894 26.8118C3.58839 26.5945 3.58796 26.3771 3.58788 26.1598C3.58778 26.0237 3.58751 25.8877 3.58717 25.7516C3.58598 25.2761 3.58545 24.8006 3.58555 24.3251C3.58563 23.8832 3.58427 23.4413 3.58223 22.9994C3.58054 22.619 3.57985 22.2386 3.57994 21.8581C3.57997 21.6314 3.57961 21.4046 3.57824 21.1779C3.57675 20.9246 3.57735 20.6713 3.57812 20.418C3.5774 20.3438 3.57667 20.2696 3.57593 20.1931C3.58069 19.579 3.71694 19.0541 4.1442 18.5967C4.6907 18.1053 5.23349 18.0275 5.94731 18.0281Z" fill="#FFB801"/>
<path d="M20.3848 3.59059C20.4643 3.59016 20.5438 3.58972 20.6257 3.58928C20.843 3.58826 21.0604 3.58784 21.2777 3.58775C21.4138 3.58766 21.5498 3.58739 21.6859 3.58705C22.1614 3.58585 22.6369 3.58533 23.1124 3.58543C23.5543 3.58551 23.9962 3.58415 24.4381 3.58211C24.8185 3.58042 25.1989 3.57973 25.5794 3.57981C25.8061 3.57985 26.0329 3.57949 26.2596 3.57812C26.5129 3.57663 26.7662 3.57723 27.0195 3.578C27.0937 3.57728 27.1679 3.57655 27.2444 3.57581C27.8586 3.58057 28.3834 3.71682 28.8408 4.14407C29.3322 4.69058 29.41 5.23337 29.4094 5.94719C29.4098 6.02668 29.4103 6.10616 29.4107 6.18806C29.4117 6.40541 29.4122 6.62274 29.4122 6.84009C29.4123 6.97616 29.4126 7.11222 29.413 7.24829C29.4141 7.72377 29.4147 8.19925 29.4146 8.67474C29.4145 9.11665 29.4159 9.55853 29.4179 10.0004C29.4196 10.3809 29.4203 10.7613 29.4202 11.1418C29.4202 11.3685 29.4205 11.5952 29.4219 11.822C29.4234 12.0753 29.4228 12.3285 29.422 12.5818C29.4227 12.6561 29.4234 12.7303 29.4242 12.8067C29.4194 13.4209 29.2832 13.9457 28.8559 14.4032C28.3094 14.8946 27.7666 14.9723 27.0528 14.9718C26.9733 14.9722 26.8938 14.9727 26.8119 14.9731C26.5946 14.9741 26.3773 14.9745 26.1599 14.9746C26.0238 14.9747 25.8878 14.975 25.7517 14.9753C25.2762 14.9765 24.8007 14.9771 24.3253 14.977C23.8834 14.9769 23.4415 14.9782 22.9996 14.9803C22.6191 14.982 22.2387 14.9826 21.8582 14.9826C21.6315 14.9825 21.4048 14.9829 21.178 14.9843C20.9247 14.9858 20.6715 14.9852 20.4182 14.9844C20.344 14.9851 20.2697 14.9858 20.1933 14.9866C19.5791 14.9818 19.0543 14.8456 18.5968 14.4183C18.1055 13.8718 18.0277 13.329 18.0282 12.6152C18.0278 12.5357 18.0273 12.4562 18.0269 12.3743C18.0259 12.157 18.0255 11.9396 18.0254 11.7223C18.0253 11.5862 18.025 11.4502 18.0247 11.3141C18.0235 10.8386 18.0229 10.3631 18.0231 9.88764C18.0231 9.44573 18.0218 9.00385 18.0197 8.56194C18.018 8.1815 18.0174 7.80107 18.0174 7.42063C18.0175 7.19387 18.0171 6.96713 18.0157 6.74038C18.0142 6.4871 18.0148 6.23384 18.0156 5.98055C18.0149 5.90633 18.0142 5.83211 18.0134 5.75564C18.0182 5.14145 18.1544 4.61665 18.5817 4.15918C19.1282 3.66783 19.671 3.59003 20.3848 3.59059Z" fill="#FFB801"/>
<path d="M5.94731 3.59059C6.0268 3.59016 6.10629 3.58972 6.18818 3.58928C6.40553 3.58826 6.62286 3.58784 6.84021 3.58775C6.97628 3.58766 7.11234 3.58739 7.24841 3.58705C7.72389 3.58585 8.19937 3.58533 8.67486 3.58543C9.11677 3.58551 9.55866 3.58415 10.0006 3.58211C10.381 3.58042 10.7614 3.57973 11.1419 3.57981C11.3686 3.57985 11.5954 3.57949 11.8221 3.57812C12.0754 3.57663 12.3287 3.57723 12.582 3.578C12.6562 3.57728 12.7304 3.57655 12.8069 3.57581C13.4211 3.58057 13.9459 3.71682 14.4033 4.14407C14.8947 4.69058 14.9725 5.23337 14.9719 5.94719C14.9723 6.02668 14.9728 6.10616 14.9732 6.18806C14.9742 6.40541 14.9747 6.62274 14.9747 6.84009C14.9748 6.97616 14.9751 7.11222 14.9755 7.24829C14.9766 7.72377 14.9772 8.19925 14.9771 8.67474C14.977 9.11665 14.9784 9.55853 14.9804 10.0004C14.9821 10.3809 14.9828 10.7613 14.9827 11.1418C14.9827 11.3685 14.983 11.5952 14.9844 11.822C14.9859 12.0753 14.9853 12.3285 14.9845 12.5818C14.9852 12.6561 14.9859 12.7303 14.9867 12.8067C14.9819 13.4209 14.8457 13.9457 14.4184 14.4032C13.8719 14.8946 13.3291 14.9723 12.6153 14.9718C12.5358 14.9722 12.4563 14.9727 12.3744 14.9731C12.1571 14.9741 11.9398 14.9745 11.7224 14.9746C11.5863 14.9747 11.4503 14.975 11.3142 14.9753C10.8387 14.9765 10.3632 14.9771 9.88776 14.977C9.44586 14.9769 9.00397 14.9782 8.56206 14.9803C8.18163 14.982 7.80119 14.9826 7.42075 14.9826C7.19399 14.9825 6.96726 14.9829 6.7405 14.9843C6.48722 14.9858 6.23396 14.9852 5.98067 14.9844C5.90645 14.9851 5.83223 14.9858 5.75576 14.9866C5.14157 14.9818 4.61677 14.8456 4.1593 14.4183C3.66795 13.8718 3.59015 13.329 3.59071 12.6152C3.59028 12.5357 3.58985 12.4562 3.5894 12.3743C3.58839 12.157 3.58796 11.9396 3.58788 11.7223C3.58778 11.5862 3.58751 11.4502 3.58717 11.3141C3.58598 10.8386 3.58545 10.3631 3.58555 9.88764C3.58563 9.44573 3.58427 9.00385 3.58223 8.56194C3.58054 8.1815 3.57985 7.80107 3.57994 7.42063C3.57997 7.19387 3.57961 6.96713 3.57824 6.74038C3.57675 6.4871 3.57735 6.23384 3.57812 5.98055C3.5774 5.90633 3.57667 5.83211 3.57593 5.75564C3.58069 5.14145 3.71694 4.61665 4.1442 4.15918C4.6907 3.66783 5.23349 3.59003 5.94731 3.59059Z" fill="#FFB801"/>
<path d="M26.6836 18.8203C26.7385 18.8515 26.7934 18.8826 26.85 18.9147C28.1407 19.7171 28.9628 21.039 29.3261 22.4942C29.5494 23.463 29.4897 24.6612 29.1328 25.5879C29.1079 25.6561 29.0831 25.7243 29.0575 25.7946C28.493 27.2469 27.4078 28.3553 25.9867 28.9878C25.8545 29.0384 25.7215 29.0866 25.5879 29.1328C25.5157 29.1582 25.4435 29.1835 25.3691 29.2096C23.9677 29.6307 22.4043 29.4932 21.1108 28.8191C19.6861 28.0423 18.7016 26.8667 18.212 25.322C17.8927 24.2197 17.9257 22.9316 18.3046 21.8496C18.3272 21.7828 18.3498 21.716 18.3731 21.6472C18.9404 20.1424 20.0842 19.0772 21.5282 18.4234C23.2309 17.7024 25.1081 17.9265 26.6836 18.8203Z" fill="#FFB801"/>
</svg>
