<svg width="30" height="30" viewBox="0 0 30 30" fill="none" xmlns="http://www.w3.org/2000/svg">
<path d="M15.6401 1.40212C15.6901 1.42765 15.7401 1.45317 15.7915 1.47946C15.8458 1.50625 15.9001 1.53304 15.956 1.56065C16.1373 1.65044 16.3179 1.74155 16.4986 1.83268C16.6286 1.89742 16.7586 1.96208 16.8887 2.02667C17.205 2.18398 17.5209 2.34216 17.8366 2.50077C18.0932 2.62969 18.35 2.75823 18.6069 2.8865C18.6435 2.90477 18.6801 2.92305 18.7178 2.94188C18.7922 2.979 18.8666 3.01613 18.9409 3.05325C19.6378 3.40119 20.3342 3.75025 21.0303 4.09972C21.6273 4.39938 22.2248 4.69813 22.8226 4.9962C23.5172 5.34256 24.2116 5.68944 24.9055 6.03719C24.9795 6.07429 25.0536 6.11139 25.1276 6.14849C25.164 6.16674 25.2005 6.18499 25.238 6.20379C25.4944 6.33222 25.7509 6.46028 26.0075 6.58819C26.3531 6.76045 26.6982 6.93358 27.043 7.1073C27.1697 7.17094 27.2964 7.23429 27.4234 7.29734C27.5966 7.38345 27.7692 7.47055 27.9418 7.55792C27.9921 7.58266 28.0425 7.6074 28.0944 7.63289C28.3909 7.78469 28.596 7.91413 28.7696 8.20312C28.8092 8.38934 28.8092 8.56926 28.8068 8.75911C28.8072 8.81467 28.8077 8.87023 28.8081 8.92748C28.8093 9.11345 28.8084 9.29935 28.8075 9.48532C28.8079 9.61873 28.8084 9.75214 28.809 9.88554C28.8104 10.2478 28.8098 10.61 28.8089 10.9722C28.8082 11.3511 28.8089 11.7301 28.8093 12.109C28.8099 12.7862 28.809 13.4634 28.8075 14.1405C28.8062 14.7543 28.8064 15.368 28.8078 15.9818C28.8093 16.6948 28.8099 17.4079 28.809 18.1209C28.8086 18.4983 28.8085 18.8756 28.8095 19.2529C28.8103 19.6077 28.8098 19.9624 28.8081 20.3171C28.8077 20.4474 28.8078 20.5776 28.8084 20.7079C28.8092 20.8856 28.8082 21.0632 28.8068 21.2409C28.8074 21.2925 28.8081 21.3442 28.8087 21.3973C28.8043 21.674 28.7773 21.8635 28.5733 22.0716C28.379 22.226 28.1638 22.333 27.9418 22.4421C27.8608 22.4831 27.8608 22.4831 27.7782 22.5249C27.5976 22.6161 27.4164 22.7061 27.2352 22.7961C27.1054 22.8614 26.9757 22.9266 26.8459 22.992C26.5303 23.1507 26.2144 23.3087 25.8982 23.4663C25.6412 23.5944 25.3843 23.7229 25.1276 23.8515C25.091 23.8698 25.0545 23.8882 25.0168 23.9071C24.9425 23.9443 24.8681 23.9815 24.7938 24.0188C24.0974 24.3677 23.4005 24.7156 22.7034 25.0632C22.1056 25.3613 21.5083 25.6603 20.9113 25.96C20.2177 26.3082 19.5237 26.6559 18.8292 27.0025C18.7551 27.0395 18.681 27.0765 18.6069 27.1135C18.5522 27.1408 18.5522 27.1408 18.4965 27.1686C18.2399 27.2968 17.9836 27.4253 17.7274 27.5541C17.3824 27.7274 17.0369 27.8998 16.6911 28.0715C16.5642 28.1346 16.4375 28.1981 16.311 28.262C16.1382 28.349 15.965 28.4349 15.7915 28.5205C15.7416 28.5461 15.6916 28.5716 15.6401 28.5979C15.293 28.767 15.0128 28.8544 14.6375 28.7255C14.4913 28.6625 14.3503 28.593 14.2085 28.5205C14.1271 28.4804 14.1271 28.4804 14.0441 28.4394C13.8628 28.3496 13.6821 28.2584 13.5015 28.1673C13.3715 28.1026 13.2414 28.0379 13.1113 27.9733C12.795 27.816 12.4792 27.6578 12.1635 27.4992C11.9069 27.3703 11.6501 27.2418 11.3931 27.1135C11.3565 27.0952 11.3199 27.077 11.2822 27.0581C11.2079 27.021 11.1335 26.9839 11.0591 26.9468C10.3622 26.5988 9.66588 26.2497 8.96974 25.9003C8.37274 25.6006 7.77529 25.3019 7.17749 25.0038C6.48286 24.6574 5.78849 24.3106 5.09455 23.9628C5.02052 23.9257 4.94649 23.8886 4.87245 23.8515C4.83603 23.8333 4.79961 23.815 4.76208 23.7962C4.50571 23.6678 4.24915 23.5397 3.99252 23.4118C3.64696 23.2396 3.30184 23.0664 2.95702 22.8927C2.83039 22.8291 2.70362 22.7657 2.5767 22.7027C2.4035 22.6165 2.23084 22.5294 2.05827 22.4421C1.98274 22.405 1.98274 22.405 1.90569 22.3671C1.60915 22.2153 1.40401 22.0859 1.2305 21.7969C1.19089 21.6107 1.19089 21.4307 1.1933 21.2409C1.19284 21.1853 1.19238 21.1298 1.19191 21.0725C1.19074 20.8865 1.19167 20.7006 1.19259 20.5147C1.19219 20.3813 1.19167 20.2479 1.19103 20.1145C1.1897 19.7522 1.19022 19.39 1.19115 19.0278C1.19189 18.6489 1.1912 18.2699 1.19074 17.891C1.19017 17.2138 1.19108 16.5366 1.19257 15.8595C1.19388 15.2457 1.19366 14.632 1.1923 14.0182C1.19074 13.3052 1.19015 12.5921 1.19102 11.8791C1.19148 11.5017 1.19154 11.1244 1.19057 10.7471C1.18972 10.3923 1.19031 10.0376 1.192 9.68285C1.19239 9.55261 1.19228 9.42236 1.19163 9.29212C1.19083 9.11442 1.19184 8.93681 1.1933 8.75911C1.19264 8.70748 1.19199 8.65585 1.19132 8.60266C1.19573 8.32601 1.2228 8.13651 1.42679 7.92841C1.62108 7.77397 1.83628 7.66699 2.05827 7.55792C2.11226 7.53058 2.16626 7.50325 2.22189 7.47508C2.4025 7.38389 2.58368 7.29388 2.76488 7.20386C2.89466 7.13864 3.02441 7.07335 3.15412 7.008C3.46971 6.84926 3.78568 6.69129 4.10185 6.53369C4.35886 6.40557 4.61571 6.27714 4.87245 6.14849C4.90903 6.13016 4.94561 6.11183 4.98329 6.09295C5.0576 6.05571 5.13191 6.01847 5.20622 5.98123C5.90263 5.63229 6.59954 5.28438 7.29663 4.9368C7.89441 4.63871 8.49173 4.33968 9.08871 4.03999C9.78241 3.69176 10.4764 3.34413 11.1709 2.99746C11.245 2.96048 11.3191 2.92349 11.3931 2.8865C11.4296 2.8683 11.466 2.8501 11.5036 2.83135C11.7601 2.70323 12.0164 2.57466 12.2727 2.44592C12.6177 2.27257 12.9632 2.10022 13.309 1.92853C13.4359 1.86536 13.5626 1.80188 13.6891 1.73805C13.8618 1.65098 14.0351 1.56509 14.2085 1.47946C14.2585 1.45394 14.3085 1.42842 14.3599 1.40212C14.8422 1.16707 15.1578 1.16707 15.6401 1.40212ZM14.6528 2.73705C14.6084 2.75896 14.564 2.78088 14.5183 2.80345C14.471 2.82743 14.4237 2.85142 14.375 2.87613C14.326 2.90056 14.2771 2.92499 14.2266 2.95017C14.1233 3.00186 14.0202 3.05379 13.9171 3.10593C13.7589 3.1859 13.6002 3.26498 13.4415 3.34396C13.3412 3.39426 13.241 3.44462 13.1408 3.49503C13.0932 3.51877 13.0455 3.54252 12.9964 3.56699C12.9526 3.58927 12.9087 3.61155 12.8636 3.6345C12.8055 3.66378 12.8055 3.66378 12.7463 3.69364C12.6457 3.74576 12.6457 3.74576 12.5977 3.86719C14.0884 4.63791 15.5817 5.40362 17.078 6.16349C17.7727 6.51646 18.4666 6.87098 19.1585 7.22939C19.7618 7.54185 20.3666 7.85122 20.9733 8.15698C21.2944 8.31894 21.6145 8.48232 21.933 8.64944C22.2331 8.80691 22.5351 8.96012 22.8389 9.1104C22.9497 9.16608 23.0597 9.22324 23.1689 9.28199C23.7298 9.59913 23.7298 9.59913 24.3522 9.63843C24.6559 9.53505 24.9258 9.38471 25.1958 9.21324C25.3594 9.11145 25.5291 9.03055 25.7032 8.94813C25.8111 8.89401 25.9189 8.83978 26.0266 8.7854C26.0831 8.75704 26.1396 8.72868 26.1977 8.69946C26.3324 8.63178 26.467 8.564 26.6016 8.49609C26.6016 8.45742 26.6016 8.41875 26.6016 8.37891C25.1085 7.62965 23.6152 6.88093 22.1216 6.13284C21.4281 5.7855 20.7347 5.43798 20.0416 5.09005C19.4375 4.78687 18.8333 4.48401 18.2289 4.18156C17.9088 4.02133 17.5887 3.86093 17.2689 3.70015C16.968 3.54893 16.6669 3.39814 16.3657 3.2477C16.255 3.1923 16.1443 3.13675 16.0338 3.08102C15.8832 3.00515 15.7323 2.92986 15.5814 2.85471C15.5154 2.8212 15.5154 2.8212 15.4481 2.78701C15.151 2.64017 14.9547 2.58615 14.6528 2.73705ZM10.6904 4.72629C10.6224 4.76031 10.5543 4.79433 10.4842 4.82938C10.4098 4.86692 10.3353 4.90447 10.2608 4.94202C10.1848 4.98013 10.1088 5.01823 10.0327 5.05631C9.83245 5.15667 9.63232 5.25731 9.43222 5.35801C9.22808 5.46068 9.0238 5.56308 8.81953 5.66551C8.41863 5.86659 8.01788 6.06797 7.61722 6.26953C7.61722 6.3082 7.61722 6.34687 7.61722 6.38672C9.10795 7.13756 10.5992 7.88733 12.0911 8.63582C12.7838 8.98337 13.4763 9.33127 14.1684 9.68C14.7715 9.98389 15.375 10.2871 15.9788 10.5896C16.2987 10.7498 16.6183 10.9103 16.9376 11.0717C17.2379 11.2234 17.5387 11.3743 17.8399 11.5246C17.9504 11.5799 18.0608 11.6356 18.1711 11.6916C18.3214 11.7679 18.4723 11.8431 18.6233 11.918C18.667 11.9405 18.7106 11.963 18.7556 11.9862C19.012 12.1114 19.1682 12.1556 19.4532 12.0703C19.6232 12.0021 19.6232 12.0021 19.7943 11.9131C19.8599 11.8802 19.9256 11.8474 19.9933 11.8135C20.0639 11.7776 20.1346 11.7417 20.2053 11.7057C20.2783 11.669 20.3514 11.6323 20.4245 11.5956C20.616 11.4994 20.8072 11.4026 20.9984 11.3058C21.1938 11.2068 21.3895 11.1084 21.5852 11.01C21.9685 10.8171 22.3516 10.6236 22.7344 10.4297C22.5228 10.255 22.2853 10.1384 22.0411 10.017C21.9946 9.99364 21.948 9.97028 21.9001 9.94621C21.7441 9.86799 21.588 9.7901 21.4318 9.71221C21.32 9.65621 21.2081 9.60019 21.0963 9.54415C20.7926 9.39201 20.4887 9.24017 20.1848 9.0884C19.8671 8.92971 19.5495 8.7708 19.232 8.61192C18.6988 8.34523 18.1655 8.07874 17.6322 7.81235C17.0148 7.50399 16.3977 7.1953 15.7806 6.88643C15.2513 6.62153 14.7219 6.3568 14.1925 6.09224C13.876 5.93409 13.5596 5.77589 13.2432 5.61752C12.946 5.46875 12.6487 5.3202 12.3513 5.17184C12.2419 5.11721 12.1325 5.06251 12.0232 5.00772C11.8745 4.93323 11.7257 4.85903 11.5769 4.7849C11.5113 4.75191 11.5113 4.75191 11.4444 4.71825C11.1055 4.5501 11.0243 4.5586 10.6904 4.72629ZM5.71332 7.20818C5.66172 7.23398 5.61013 7.25979 5.55696 7.28638C5.50178 7.31458 5.4466 7.34277 5.38974 7.37183C5.33285 7.40044 5.27595 7.42905 5.21734 7.45853C5.03563 7.55004 4.85425 7.6422 4.67288 7.73438C4.54977 7.79652 4.42663 7.85862 4.30347 7.92068C4.00155 8.07293 3.69991 8.22572 3.39847 8.37891C3.39847 8.41758 3.39847 8.45625 3.39847 8.49609C4.8892 9.24693 6.38047 9.9967 7.87238 10.7452C8.56507 11.0927 9.25757 11.4406 9.94967 11.7894C10.5528 12.0933 11.1562 12.3965 11.7601 12.699C12.0799 12.8592 12.3996 13.0197 12.7188 13.181C13.0192 13.3328 13.32 13.4837 13.6211 13.6339C13.7317 13.6893 13.8421 13.7449 13.9523 13.801C14.1027 13.8773 14.2535 13.9524 14.4046 14.0273C14.4482 14.0498 14.4919 14.0724 14.5369 14.0956C14.7933 14.2208 14.9492 14.2644 15.2344 14.1797C15.371 14.128 15.371 14.128 15.5002 14.0601C15.5495 14.0355 15.5987 14.0108 15.6494 13.9854C15.7015 13.9588 15.7535 13.9322 15.8071 13.9048C15.8883 13.864 15.8883 13.864 15.9711 13.8223C16.1432 13.7356 16.315 13.6482 16.4868 13.5608C16.6038 13.5017 16.7207 13.4427 16.8377 13.3837C17.1238 13.2394 17.4097 13.0945 17.6953 12.9492C17.6953 12.9105 17.6953 12.8719 17.6953 12.832C16.2023 12.0828 14.709 11.3341 13.2154 10.586C12.5219 10.2386 11.8285 9.8911 11.1353 9.54317C10.5313 9.23999 9.92708 8.93714 9.32269 8.63468C9.00254 8.47445 8.68248 8.31406 8.36261 8.15327C8.06175 8.00205 7.76068 7.85127 7.45943 7.70082C7.34871 7.64543 7.23807 7.58987 7.12752 7.53415C6.97694 7.45828 6.82608 7.38299 6.67514 7.30784C6.60914 7.27433 6.60914 7.27433 6.5418 7.24013C6.22321 7.08267 6.03201 7.047 5.71332 7.20818ZM2.51956 9.49219C2.51956 13.34 2.51956 17.1879 2.51956 21.1523C3.48005 21.658 3.48005 21.658 4.44746 22.1496C4.49447 22.173 4.54147 22.1965 4.5899 22.2207C4.63852 22.245 4.68714 22.2693 4.73723 22.2943C4.84236 22.3469 4.9475 22.3995 5.05262 22.4521C5.33409 22.593 5.61562 22.7337 5.89718 22.8744C6.19294 23.0222 6.48863 23.1701 6.78434 23.318C7.27945 23.5656 7.77461 23.8131 8.26979 24.0606C8.84272 24.3469 9.41557 24.6334 9.98838 24.9199C10.4814 25.1666 10.9745 25.4132 11.4677 25.6597C11.7617 25.8066 12.0558 25.9537 12.3498 26.1007C12.6251 26.2385 12.9005 26.3761 13.176 26.5137C13.2773 26.5643 13.3785 26.6149 13.4798 26.6656C13.6173 26.7345 13.7549 26.8032 13.8925 26.8718C13.9331 26.8922 13.9736 26.9125 14.0154 26.9335C14.178 27.0289 14.178 27.0289 14.3555 27.0703C14.3555 23.2225 14.3555 19.3746 14.3555 15.4102C13.395 14.9045 13.395 14.9045 12.4276 14.4129C12.3806 14.3895 12.3336 14.366 12.2852 14.3418C12.2365 14.3175 12.1879 14.2932 12.1378 14.2682C12.0327 14.2156 11.9276 14.163 11.8224 14.1104C11.541 13.9695 11.2594 13.8288 10.9779 13.6881C10.6821 13.5403 10.3864 13.3924 10.0907 13.2445C9.59561 12.9969 9.10046 12.7494 8.60527 12.5019C8.03234 12.2156 7.45949 11.9291 6.88668 11.6426C6.39362 11.3959 5.90052 11.1493 5.40738 10.9028C5.11331 10.7559 4.81927 10.6088 4.52526 10.4617C4.24992 10.324 3.97453 10.1864 3.69909 10.0488C3.5978 9.9982 3.49654 9.94756 3.39529 9.89687C3.25777 9.82803 3.12017 9.75933 2.98256 9.69067C2.942 9.67032 2.90143 9.64997 2.85964 9.62901C2.69708 9.53358 2.69708 9.53358 2.51956 9.49219ZM27.1678 9.6159C27.0869 9.65637 27.0869 9.65637 27.0043 9.69766C26.9457 9.72714 26.887 9.75661 26.8266 9.78699C26.7668 9.8169 26.7071 9.84681 26.6455 9.87763C26.4538 9.97365 26.2622 10.0698 26.0706 10.166C25.941 10.231 25.8114 10.2959 25.6818 10.3608C25.3634 10.5204 25.045 10.68 24.7266 10.8398C24.7264 10.8911 24.7264 10.8911 24.7262 10.9433C24.7227 11.7747 24.7183 12.6061 24.7128 13.4374C24.7101 13.8395 24.7078 14.2415 24.7063 14.6436C24.7048 15.0315 24.7024 15.4193 24.6995 15.8072C24.6985 15.9553 24.6978 16.1034 24.6974 16.2515C24.6969 16.4587 24.6952 16.6659 24.6933 16.8731C24.6934 16.9345 24.6935 16.9959 24.6936 17.0592C24.6868 17.5857 24.6868 17.5857 24.4922 17.8125C24.3107 17.9335 24.2014 17.9659 23.9846 17.9581C23.5898 17.8762 23.2532 17.5563 22.9335 17.3227C22.8862 17.2882 22.8389 17.2538 22.7902 17.2183C22.6952 17.1487 22.6005 17.0786 22.5062 17.0079C22.4625 16.9756 22.4188 16.9433 22.3737 16.91C22.3149 16.8661 22.3149 16.8661 22.255 16.8212C22.144 16.7428 22.144 16.7428 21.9727 16.7578C21.8727 16.8838 21.7854 17.0078 21.698 17.1423C21.6405 17.2285 21.5829 17.3146 21.5252 17.4007C21.4938 17.4479 21.4625 17.495 21.4302 17.5436C21.2435 17.8213 21.0511 18.0949 20.8594 18.3691C20.5276 18.8448 20.5276 18.8448 20.1998 19.3231C20.1711 19.3653 20.1424 19.4075 20.1128 19.451C20.0612 19.527 20.0097 19.6032 19.9585 19.6796C19.5083 20.3424 19.5083 20.3424 19.2552 20.4497C18.9782 20.4645 18.7937 20.4663 18.5742 20.2734C18.4726 20.1051 18.4422 19.9795 18.4407 19.784C18.4401 19.7334 18.4394 19.6828 18.4388 19.6306C18.4386 19.5756 18.4385 19.5205 18.4384 19.4638C18.4378 19.4055 18.4372 19.3472 18.4366 19.2871C18.4348 19.0943 18.4338 18.9016 18.4328 18.7088C18.4317 18.5751 18.4306 18.4415 18.4294 18.3078C18.4264 17.956 18.424 17.6042 18.4219 17.2525C18.4195 16.8935 18.4165 16.5345 18.4136 16.1755C18.4079 15.4712 18.403 14.7668 18.3985 14.0625C18.1887 14.1295 17.9897 14.201 17.7928 14.2996C17.7461 14.3229 17.6994 14.3462 17.6512 14.3701C17.602 14.395 17.5527 14.4198 17.5019 14.4454C17.4506 14.4711 17.3992 14.4968 17.3462 14.5233C17.2382 14.5774 17.1302 14.6317 17.0222 14.686C16.8564 14.7695 16.6903 14.8525 16.5243 14.9356C16.4192 14.9882 16.3142 15.0409 16.2092 15.0936C16.1594 15.1186 16.1095 15.1435 16.0581 15.1693C15.9894 15.2039 15.9894 15.2039 15.9194 15.2392C15.8789 15.2595 15.8385 15.2799 15.7968 15.3008C15.7036 15.3456 15.7036 15.3456 15.6446 15.4102C15.6388 15.5606 15.6369 15.7094 15.6375 15.8599C15.6375 15.9075 15.6374 15.9552 15.6374 16.0043C15.6373 16.1653 15.6376 16.3262 15.6379 16.4872C15.6379 16.6021 15.6379 16.7169 15.6379 16.8318C15.6379 17.1448 15.6382 17.4577 15.6386 17.7706C15.639 18.0973 15.639 18.4239 15.6391 18.7506C15.6393 19.3696 15.6398 19.9886 15.6403 20.6076C15.641 21.3121 15.6413 22.0167 15.6416 22.7212C15.6422 24.1709 15.6433 25.6206 15.6446 27.0703C16.3886 26.7211 17.1273 26.3625 17.8622 25.9946C17.9674 25.942 18.0725 25.8895 18.1776 25.837C18.4592 25.6964 18.7407 25.5556 19.0222 25.4147C19.3179 25.2668 19.6136 25.119 19.9093 24.9712C20.4045 24.7237 20.8997 24.476 21.3948 24.2283C21.9676 23.9418 22.5405 23.6554 23.1134 23.3691C23.6065 23.1226 24.0996 22.8761 24.5927 22.6295C24.8867 22.4824 25.1807 22.3354 25.4748 22.1885C25.7502 22.0508 26.0256 21.9131 26.301 21.7753C26.4022 21.7246 26.5035 21.674 26.6048 21.6234C26.7424 21.5547 26.88 21.4858 27.0175 21.4169C27.0581 21.3966 27.0986 21.3764 27.1404 21.3556C27.3225 21.2718 27.3225 21.2718 27.4805 21.1523C27.4862 21.0019 27.4881 20.8531 27.4875 20.7026C27.4876 20.655 27.4876 20.6073 27.4877 20.5582C27.4878 20.3972 27.4875 20.2363 27.4872 20.0753C27.4871 19.9604 27.4871 19.8456 27.4872 19.7307C27.4872 19.4177 27.4868 19.1048 27.4864 18.7919C27.4861 18.4652 27.486 18.1386 27.486 17.8119C27.4858 17.1929 27.4853 16.5739 27.4847 15.9549C27.4841 15.2504 27.4837 14.5458 27.4834 13.8413C27.4828 12.3916 27.4818 10.9419 27.4805 9.49219C27.3685 9.49219 27.2656 9.56686 27.1678 9.6159ZM22.9736 11.7097C22.9375 11.7277 22.9015 11.7457 22.8644 11.7643C22.7476 11.8227 22.6309 11.8815 22.5142 11.9403C22.4422 11.9764 22.3702 12.0125 22.2982 12.0485C22.0309 12.1825 21.7637 12.3168 21.4966 12.4512C20.8996 12.7509 20.3026 13.0506 19.6875 13.3594C19.6875 14.8096 19.6875 16.2598 19.6875 17.7539C19.8615 17.5364 20.0281 17.3177 20.1892 17.0911C20.2143 17.056 20.2393 17.0209 20.265 16.9847C20.4892 16.6692 20.7089 16.3506 20.9272 16.0309C21.002 15.9215 21.0771 15.8122 21.1524 15.7031C21.1916 15.6458 21.1916 15.6458 21.2317 15.5874C21.4856 15.2228 21.4856 15.2228 21.7383 15.1758C22.1771 15.1834 22.4129 15.35 22.7527 15.6152C22.8451 15.6856 22.9377 15.7558 23.0303 15.8258C23.0706 15.857 23.1109 15.8883 23.1524 15.9204C23.2661 16.0067 23.2661 16.0067 23.4375 16.0547C23.4375 14.5658 23.4375 13.077 23.4375 11.543C23.2582 11.543 23.1332 11.6296 22.9736 11.7097Z" fill="#FC6EB2"/>
</svg>
